<?xml version="1.0" standalone="no"?><!DOCTYPE svg PUBLIC "-//W3C//DTD SVG 1.1//EN" "http://www.w3.org/Graphics/SVG/1.1/DTD/svg11.dtd"><svg t="1615007555718" class="icon" viewBox="0 0 1024 1024" version="1.1" xmlns="http://www.w3.org/2000/svg" p-id="2148" xmlns:xlink="http://www.w3.org/1999/xlink" width="200" height="200"><defs><style type="text/css"></style></defs><path d="M512 1021.44C231.68 1021.44 2.56 792.32 2.56 512S231.68 2.56 512 2.56 1021.44 230.4 1021.44 512c0 280.32-229.12 509.44-509.44 509.44z m0-998.4C241.92 23.04 23.04 241.92 23.04 512S243.2 1000.96 512 1000.96C782.08 1000.96 1000.96 780.8 1000.96 512 1000.96 241.92 782.08 23.04 512 23.04z" p-id="2149" fill="#cdcdcd"></path><path d="M522.24 311.04c-2.56-2.56-6.4-3.84-10.24-3.84-3.84 0-7.68 1.28-10.24 3.84l-99.84 99.84c-5.12 5.12-5.12 14.08 0 19.2 5.12 5.12 14.08 5.12 19.2 0l90.88-90.88 90.88 90.88c2.56 2.56 6.4 3.84 10.24 3.84 3.84 0 6.4-1.28 10.24-3.84 5.12-5.12 5.12-14.08 0-19.2l-101.12-99.84zM256 565.76h58.88v149.76h28.16V565.76h57.6v-26.88H256zM552.96 538.88h-72.96a34.9696 34.9696 0 0 0-34.56 34.56v108.8a34.9696 34.9696 0 0 0 34.56 34.56h72.96a34.9696 34.9696 0 0 0 34.56-34.56v-108.8c0-8.96-3.84-17.92-10.24-24.32-7.68-7.68-16.64-10.24-24.32-10.24z m6.4 142.08c0 1.28 0 2.56-2.56 5.12-1.28 1.28-3.84 2.56-5.12 2.56h-72.96c-1.28 0-2.56 0-5.12-2.56-1.28-1.28-2.56-3.84-2.56-5.12v-108.8c0-1.28 0-2.56 2.56-5.12 1.28-1.28 3.84-2.56 5.12-2.56h72.96c1.28 0 2.56 0 5.12 2.56 1.28 1.28 2.56 3.84 2.56 5.12v108.8zM757.76 549.12c-6.4-6.4-15.36-10.24-24.32-10.24H640v176.64h26.88v-78.08h66.56a34.9696 34.9696 0 0 0 34.56-34.56v-30.72c0-7.68-3.84-16.64-10.24-23.04z m-17.92 55.04c0 1.28 0 2.56-2.56 5.12-1.28 1.28-3.84 2.56-5.12 2.56H665.6v-44.8h66.56c1.28 0 2.56 0 5.12 2.56 1.28 1.28 2.56 3.84 2.56 5.12v29.44z" p-id="2150" fill="#cdcdcd"></path></svg>